<svg width="70" height="70" viewBox="0 0 70 70" fill="none" xmlns="http://www.w3.org/2000/svg">
	<path d="M34.3619 26.893C33.5087 26.0399 32.1219 26.0355 31.2644 26.8886L24.0631 34.0943L21.2369 31.2636C20.3838 30.4105 18.9969 30.4105 18.1437 31.2636C17.2906 32.1168 17.2906 33.5036 18.1437 34.3568L22.5187 38.7318C22.9431 39.1605 23.5031 39.3749 24.0631 39.3749C24.6231 39.3749 25.1831 39.1605 25.6119 38.7361L34.3619 29.9861C35.215 29.133 35.215 27.7461 34.3619 26.893Z" fill="#FF7900"/>
	<path d="M34.3619 44.3933C33.5087 43.5401 32.1219 43.5358 31.2644 44.3889L24.0631 51.5945L21.2369 48.7683C20.3838 47.9151 18.9969 47.9151 18.1437 48.7683C17.2906 49.6214 17.2906 51.0082 18.1437 51.8614L22.5187 56.2364C22.9431 56.6607 23.5031 56.8751 24.0631 56.8751C24.6231 56.8751 25.1831 56.6607 25.6119 56.2364L34.3619 47.4864C35.215 46.6333 35.215 45.2464 34.3619 44.3933Z" fill="#FF7900"/>
	<path d="M50.3125 30.625H41.5625C40.355 30.625 39.375 31.605 39.375 32.8125C39.375 34.02 40.355 35 41.5625 35H50.3125C51.52 35 52.5 34.02 52.5 32.8125C52.5 31.605 51.52 30.625 50.3125 30.625Z" fill="#FF7900"/>
	<path d="M50.3125 48.125H41.5625C40.355 48.125 39.375 49.105 39.375 50.3125C39.375 51.52 40.355 52.5 41.5625 52.5H50.3125C51.52 52.5 52.5 51.52 52.5 50.3125C52.5 49.105 51.52 48.125 50.3125 48.125Z" fill="#FF7900"/>
	<path d="M56.875 8.75H48.125V6.5625C48.125 5.355 47.145 4.375 45.9375 4.375H41.1906C40.285 1.82875 37.8525 0 35 0C32.1475 0 29.715 1.82875 28.8094 4.375H24.0625C22.855 4.375 21.875 5.355 21.875 6.5625V8.75H13.125C10.7144 8.75 8.75 10.7144 8.75 13.125V65.625C8.75 68.0356 10.7144 70 13.125 70H56.875C59.2856 70 61.25 68.0356 61.25 65.625V13.125C61.25 10.7144 59.2856 8.75 56.875 8.75ZM26.25 8.75H30.625C31.8325 8.75 32.8125 7.77 32.8125 6.5625C32.8125 5.355 33.7925 4.375 35 4.375C36.2075 4.375 37.1875 5.355 37.1875 6.5625C37.1875 7.77 38.1675 8.75 39.375 8.75H43.75V13.125H26.25V8.75ZM56.875 65.625H13.125V13.125H21.875V15.3125C21.875 16.52 22.855 17.5 24.0625 17.5H45.9375C47.145 17.5 48.125 16.52 48.125 15.3125V13.125H56.875V65.625Z" fill="#FF7900"/>
</svg>