<svg width="70" height="70" viewBox="0 0 70 70" fill="none" xmlns="http://www.w3.org/2000/svg">
	<g clip-path="url(#clip0)">
		<path d="M60.3393 0.412915C59.7662 0.00167463 59.0356 -0.112073 58.3706 0.115422L46.0071 4.23658L35.8136 0.159171C35.293 -0.0508242 34.7111 -0.0508242 34.1905 0.159171L23.997 4.23658L11.6292 0.115422C10.9598 -0.112073 10.2292 0.00167463 9.66047 0.412915C9.09173 0.824155 8.75049 1.48476 8.75049 2.18912V67.8126C8.75049 68.5169 9.08736 69.1775 9.66047 69.5888C10.2336 70 10.9598 70.1094 11.6292 69.8863L23.9926 65.7651L34.1905 69.8425C34.7111 70.0525 35.293 70.0525 35.8136 69.8425L46.0115 65.7651L58.3749 69.8863C58.5981 69.965 58.8299 70 59.0618 70C59.5168 70 59.963 69.86 60.3393 69.5888C60.9124 69.1775 61.2492 68.5169 61.2492 67.8126V2.18912C61.2492 1.48476 60.9124 0.824155 60.3393 0.412915ZM56.8744 64.7764L46.6327 61.364C46.1427 61.1977 45.609 61.2152 45.1278 61.4077L34.9999 65.4545L24.872 61.4034C24.6095 61.3027 24.3382 61.2502 24.0626 61.2502C23.8308 61.2502 23.5945 61.2852 23.3714 61.364L13.1254 64.7764V5.2253L23.3714 8.63772C23.8614 8.80834 24.3907 8.79084 24.8764 8.59397L34.9999 4.54719L45.1234 8.59835C45.6002 8.79084 46.1384 8.81272 46.6283 8.6421L56.8744 5.2253V64.7764Z" fill="#FF7900"/>
		<path d="M37.1875 13.1265H19.6879C18.4805 13.1265 17.5005 14.1064 17.5005 15.3139C17.5005 16.5214 18.4805 17.5014 19.6879 17.5014H37.1875C38.395 17.5014 39.375 16.5214 39.375 15.3139C39.375 14.1064 38.395 13.1265 37.1875 13.1265Z" fill="#FF7900"/>
		<path d="M32.8126 30.6255H19.6879C18.4805 30.6255 17.5005 31.6055 17.5005 32.8129C17.5005 34.0204 18.4805 35.0004 19.6879 35.0004H32.8126C34.0201 35.0004 35.0001 34.0204 35.0001 32.8129C35.0001 31.6055 34.0201 30.6255 32.8126 30.6255Z" fill="#FF7900"/>
		<path d="M32.8126 43.7505H19.6879C18.4805 43.7505 17.5005 44.7305 17.5005 45.9379C17.5005 47.1454 18.4805 48.1254 19.6879 48.1254H32.8126C34.0201 48.1254 35.0001 47.1454 35.0001 45.9379C35.0001 44.7305 34.0201 43.7505 32.8126 43.7505Z" fill="#FF7900"/>
		<path d="M50.3122 21.876H19.6879C18.4805 21.876 17.5005 22.856 17.5005 24.0634C17.5005 25.2709 18.4805 26.2509 19.6879 26.2509H50.3122C51.5197 26.2509 52.4997 25.2709 52.4997 24.0634C52.4997 22.856 51.5197 21.876 50.3122 21.876Z" fill="#FF7900"/>
		<path d="M45.9373 41.5627C44.603 41.5627 43.7499 40.8452 43.7499 40.469C43.7499 40.0928 44.603 39.3753 45.9373 39.3753C46.6067 39.3753 47.2017 39.5372 47.6523 39.8346C48.6585 40.5084 50.0191 40.2371 50.6841 39.2309C51.3578 38.2291 51.0866 36.8685 50.0804 36.1991C49.4898 35.8054 48.8292 35.5035 48.1248 35.3023V32.8129C48.1248 31.6055 47.1448 30.6255 45.9373 30.6255C44.7299 30.6255 43.7499 31.6055 43.7499 32.8129V35.3373C41.2081 36.0897 39.375 38.0934 39.375 40.469C39.375 43.4833 42.3193 45.9376 45.9373 45.9376C47.2717 45.9376 48.1248 46.6551 48.1248 47.0314C48.1248 47.4076 47.2717 48.1251 45.9373 48.1251C45.268 48.1251 44.673 47.9632 44.2224 47.6657C43.2205 46.9964 41.8556 47.2632 41.1906 48.2694C40.5168 49.2713 40.7881 50.6319 41.7943 51.3013C42.3893 51.6994 43.0499 51.9969 43.7543 52.1981V54.6874C43.7543 55.8949 44.7342 56.8749 45.9417 56.8749C47.1492 56.8749 48.1292 55.8949 48.1292 54.6874V52.1631C50.671 51.4106 52.5041 49.4025 52.5041 47.0314C52.4997 44.017 49.5554 41.5627 45.9373 41.5627Z" fill="#FF7900"/>
	</g>
	<defs>
		<clipPath id="clip0">
			<rect width="70" height="70" fill="white"/>
		</clipPath>
	</defs>
</svg>