<svg width="70" height="70" viewBox="0 0 70 70" fill="none" xmlns="http://www.w3.org/2000/svg">
	<path d="M69.7077 55.79L57.0114 33.7488C58.3239 30.7781 59.0633 27.5056 59.0633 24.0625C59.0633 10.7931 48.2702 0 35.0008 0C21.7314 0 10.9383 10.7931 10.9383 24.0625C10.9383 27.5056 11.6777 30.7781 12.9902 33.7444L0.293917 55.7812C-0.147958 56.5513 -0.0867079 57.5094 0.455792 58.2094C0.998292 58.9094 1.90392 59.2244 2.75704 58.9881L15.602 55.5319L19.0189 68.3725C19.2464 69.23 19.9683 69.8644 20.8433 69.9781C20.9439 69.9956 21.0402 70 21.132 70C21.9064 70 22.6327 69.5888 23.0264 68.9062L35.0008 48.1775L46.9752 68.9062C47.3689 69.5888 48.0952 70 48.8695 70C48.9614 70 49.062 69.9956 49.1583 69.9825C50.0333 69.8688 50.7552 69.2344 50.9827 68.3769L54.3995 55.5363L67.2445 58.9925C68.0977 59.2288 69.0077 58.9137 69.5458 58.2137C70.0839 57.5137 70.1495 56.5556 69.7077 55.79ZM21.8845 62.1381L19.2639 52.29C19.1152 51.73 18.7477 51.2488 18.2445 50.9556C17.7414 50.6669 17.1377 50.5925 16.582 50.7369L6.72079 53.3881L15.5145 38.1237C19.0014 42.945 24.212 46.4363 30.2539 47.6525L21.8845 62.1381ZM15.3133 24.0625C15.3133 13.2081 24.1464 4.375 35.0008 4.375C45.8552 4.375 54.6883 13.2081 54.6883 24.0625C54.6883 34.9169 45.8552 43.75 35.0008 43.75C24.1464 43.75 15.3133 34.9169 15.3133 24.0625ZM53.4195 50.7412C52.8595 50.5925 52.2602 50.6712 51.757 50.96C51.2539 51.2487 50.8864 51.73 50.7377 52.2944L48.117 62.1425L39.7477 47.6569C45.7852 46.445 51.0002 42.9494 54.487 38.1281L63.2808 53.3925L53.4195 50.7412Z" fill="#FF7900"/>
	<path d="M48.0124 18.6026C47.7805 17.8982 47.2074 17.3645 46.4899 17.1763L40.2861 15.5532L36.8824 9.82196C36.0949 8.49196 33.9074 8.49196 33.1242 9.82196L29.7205 15.5532L23.5124 17.1763C22.7905 17.3645 22.2217 17.8982 21.9855 18.6026C21.7492 19.307 21.8892 20.077 22.353 20.6588L26.5136 25.8651L26.0586 32.6682C26.0105 33.4251 26.3561 34.1557 26.9774 34.5976C27.5986 35.0395 28.4036 35.1226 29.0992 34.8251L35.0011 32.3182L40.903 34.8251C41.1786 34.9432 41.4717 35.0001 41.7605 35.0001C42.2067 35.0001 42.653 34.8645 43.0292 34.5976C43.6505 34.1557 43.9961 33.4251 43.9436 32.6682L43.4886 25.8651L47.6449 20.6588C48.1086 20.0813 48.2442 19.307 48.0124 18.6026ZM39.5424 23.8001C39.2011 24.2288 39.0305 24.767 39.0699 25.3095L39.3455 29.4088L35.8586 27.9257C35.583 27.8076 35.2899 27.7507 35.0011 27.7507C34.7124 27.7507 34.4192 27.8076 34.1436 27.9257L30.6611 29.4088L30.9324 25.3095C30.9717 24.767 30.8011 24.2288 30.4599 23.8001L27.8742 20.5582L31.6936 19.5563C32.2492 19.412 32.7261 19.0488 33.0192 18.5588L35.0011 15.2207L36.983 18.5588C37.2761 19.0488 37.753 19.412 38.3086 19.5563L42.128 20.5582L39.5424 23.8001Z" fill="#FF7900"/>
</svg>