<svg width="28" height="28" viewBox="0 0 28 28" fill="none" xmlns="http://www.w3.org/2000/svg">
<path d="M13.5261 2.556C17.1375 2.556 17.5658 2.56949 18.9928 2.63469C22.6584 2.80107 24.3706 4.53569 24.5374 8.16455C24.6028 9.58664 24.6152 10.0138 24.6152 13.6157C24.6152 17.2187 24.6016 17.6448 24.5374 19.0669C24.3694 22.6924 22.6618 24.4304 18.9928 24.5967C17.5658 24.6619 17.1398 24.6754 13.5261 24.6754C9.9146 24.6754 9.48628 24.6619 8.0604 24.5967C4.38582 24.4292 2.68267 22.6868 2.51585 19.0658C2.45047 17.6437 2.43694 17.2176 2.43694 13.6146C2.43694 10.0127 2.4516 9.58664 2.51585 8.16343C2.6838 4.53569 4.39146 2.79995 8.0604 2.63357C9.4874 2.56949 9.9146 2.556 13.5261 2.556ZM13.5261 0.12439C9.85261 0.12439 9.39272 0.140128 7.94994 0.205331C3.03773 0.430168 0.307718 3.14844 0.0822835 8.05213C0.0157804 9.49221 0 9.95088 0 13.6146C0 17.2783 0.0157804 17.7381 0.0811564 19.1771C0.306591 24.0762 3.03209 26.799 7.94881 27.0239C9.39272 27.0891 9.85261 27.1048 13.5261 27.1048C17.1995 27.1048 17.6605 27.0891 19.1033 27.0239C24.011 26.799 26.7478 24.0807 26.9698 19.1771C27.0363 17.7381 27.0521 17.2783 27.0521 13.6146C27.0521 9.95088 27.0363 9.49221 26.971 8.05326C26.75 3.15856 24.0212 0.431292 19.1044 0.206455C17.6605 0.140128 17.1995 0.12439 13.5261 0.12439V0.12439ZM13.5261 6.68737C9.69029 6.68737 6.58043 9.789 6.58043 13.6146C6.58043 17.4402 9.69029 20.5429 13.5261 20.5429C17.3618 20.5429 20.4717 17.4413 20.4717 13.6146C20.4717 9.789 17.3618 6.68737 13.5261 6.68737ZM13.5261 18.1113C11.0361 18.1113 9.01737 16.099 9.01737 13.6146C9.01737 11.1313 11.0361 9.11786 13.5261 9.11786C16.016 9.11786 18.0347 11.1313 18.0347 13.6146C18.0347 16.099 16.016 18.1113 13.5261 18.1113ZM20.7467 4.79537C19.8495 4.79537 19.1225 5.52047 19.1225 6.4142C19.1225 7.30792 19.8495 8.03302 20.7467 8.03302C21.6428 8.03302 22.3687 7.30792 22.3687 6.4142C22.3687 5.52047 21.6428 4.79537 20.7467 4.79537Z" fill="#FFA740"/>
</svg>
