<svg width="39" height="39" viewBox="0 0 39 39" fill="none" xmlns="http://www.w3.org/2000/svg">
	<path d="M19.1364 4.031C24.2458 4.031 24.8518 4.05009 26.8706 4.14234C32.0566 4.37773 34.4789 6.83182 34.715 11.9659C34.8074 13.9778 34.825 14.5822 34.825 19.678C34.825 24.7755 34.8058 25.3783 34.715 27.3902C34.4773 32.5195 32.0614 34.9783 26.8706 35.2137C24.8518 35.306 24.249 35.3251 19.1364 35.3251C14.027 35.3251 13.421 35.306 11.4037 35.2137C6.20496 34.9768 3.79538 32.5115 3.55936 27.3886C3.46687 25.3767 3.44773 24.7739 3.44773 19.6764C3.44773 14.5806 3.46847 13.9778 3.55936 11.9643C3.79697 6.83182 6.21294 4.37614 11.4037 4.14075C13.4226 4.05009 14.027 4.031 19.1364 4.031ZM19.1364 0.59082C13.9392 0.59082 13.2886 0.613087 11.2474 0.705334C4.29771 1.02343 0.435352 4.86918 0.116413 11.8068C0.0223258 13.8442 0 14.4931 0 19.6764C0 24.8598 0.0223258 25.5103 0.114818 27.5461C0.433757 34.4774 4.28973 38.3295 11.2458 38.6476C13.2886 38.7398 13.9392 38.7621 19.1364 38.7621C24.3335 38.7621 24.9857 38.7398 27.0269 38.6476C33.9702 38.3295 37.8422 34.4837 38.1563 27.5461C38.2504 25.5103 38.2727 24.8598 38.2727 19.6764C38.2727 14.4931 38.2504 13.8442 38.1579 11.8084C37.8453 4.8835 33.9846 1.02502 27.0285 0.706925C24.9857 0.613087 24.3335 0.59082 19.1364 0.59082V0.59082ZM19.1364 9.87598C13.7096 9.87598 9.30984 14.2641 9.30984 19.6764C9.30984 25.0888 13.7096 29.4785 19.1364 29.4785C24.5631 29.4785 28.9629 25.0904 28.9629 19.6764C28.9629 14.2641 24.5631 9.87598 19.1364 9.87598ZM19.1364 26.0383C15.6137 26.0383 12.7576 23.1914 12.7576 19.6764C12.7576 16.1631 15.6137 13.3146 19.1364 13.3146C22.659 13.3146 25.5151 16.1631 25.5151 19.6764C25.5151 23.1914 22.659 26.0383 19.1364 26.0383ZM29.352 7.19922C28.0826 7.19922 27.054 8.22507 27.054 9.48949C27.054 10.7539 28.0826 11.7798 29.352 11.7798C30.6198 11.7798 31.6468 10.7539 31.6468 9.48949C31.6468 8.22507 30.6198 7.19922 29.352 7.19922Z" fill="#FFA740"/>
</svg>