<svg width="28" height="23" viewBox="0 0 28 23" fill="none" xmlns="http://www.w3.org/2000/svg">
<path fill-rule="evenodd" clip-rule="evenodd" d="M20.9538 22.7322C21.3168 22.9885 21.7845 23.0526 22.2016 22.8952C22.6187 22.7367 22.9252 22.3815 23.0177 21.9509C23.9972 17.3597 26.3733 5.73906 27.2649 1.56272C27.3325 1.24795 27.2198 0.92081 26.9718 0.710588C26.7238 0.500365 26.38 0.439659 26.0734 0.553202C21.3472 2.29793 6.79203 7.7446 0.842821 9.94013C0.465218 10.0795 0.219495 10.4415 0.231894 10.8384C0.24542 11.2363 0.513687 11.5814 0.900307 11.6972C3.56832 12.4932 7.07044 13.6005 7.07044 13.6005C7.07044 13.6005 8.7071 18.53 9.56037 21.037C9.66745 21.3517 9.9143 21.599 10.2401 21.6845C10.5647 21.7688 10.9118 21.68 11.1542 21.4518C12.5248 20.1612 14.6439 18.1658 14.6439 18.1658C14.6439 18.1658 18.6702 21.11 20.9538 22.7322ZM8.54366 12.9777L10.4362 19.2034L10.8566 15.2609C10.8566 15.2609 18.1686 8.6833 22.3369 4.93415C22.4586 4.82398 22.4755 4.63961 22.3741 4.51033C22.2737 4.38105 22.0889 4.35069 21.9502 4.43838C17.1192 7.51527 8.54366 12.9777 8.54366 12.9777Z" fill="#39A4E0"/>
</svg>
