<svg width="40" height="33" viewBox="0 0 40 33" fill="none" xmlns="http://www.w3.org/2000/svg">
	<path fill-rule="evenodd" clip-rule="evenodd" d="M30.0968 31.8204C30.6103 32.1831 31.2721 32.2737 31.8622 32.051C32.4522 31.8268 32.886 31.3242 33.0167 30.7151C34.4025 24.2196 37.7641 7.7789 39.0255 1.87031C39.1212 1.42497 38.9618 0.962147 38.6109 0.66473C38.2601 0.367312 37.7737 0.281426 37.34 0.442064C30.6534 2.91047 10.0611 10.6163 1.64426 13.7225C1.11003 13.9197 0.76239 14.4318 0.779931 14.9933C0.799068 15.5563 1.17861 16.0446 1.72559 16.2084C5.50023 17.3344 10.455 18.901 10.455 18.901C10.455 18.901 12.7705 25.8753 13.9776 29.422C14.1291 29.8673 14.4784 30.2172 14.9392 30.3381C15.3985 30.4574 15.8897 30.3318 16.2325 30.0089C18.1717 28.183 21.1697 25.3599 21.1697 25.3599C21.1697 25.3599 26.866 29.5254 30.0968 31.8204ZM12.5392 18.0199L15.2167 26.8279L15.8115 21.2502C15.8115 21.2502 26.1563 11.9443 32.0535 6.64012C32.2258 6.48426 32.2497 6.22342 32.1062 6.04052C31.9642 5.85761 31.7027 5.81467 31.5066 5.93873C24.6717 10.2918 12.5392 18.0199 12.5392 18.0199Z" fill="#39A4E0"/>
</svg>