<svg width="158" height="25" viewBox="0 0 158 25" fill="none" xmlns="http://www.w3.org/2000/svg">
<g clip-path="url(#clip0_1541_126)">
<g clip-path="url(#clip1_1541_126)">
<g clip-path="url(#clip2_1541_126)">
<path d="M9.5267 23.9694L4.13885 16.3225V23.9694H0V0.553711H4.13885V13.7119L9.47772 6.43403H14.3758L7.51849 15.1622L14.5472 23.9694H9.5267Z" fill="#FF9900"/>
<path d="M32.1554 6.43457V23.97H28.0165V20.4366C27.5756 21.6232 26.8654 22.5461 25.8858 23.2053C24.9061 23.8647 23.7552 24.2074 22.4572 24.2074C20.5714 24.2074 19.0775 23.548 17.951 22.2033C16.8244 20.8585 16.2856 19.0126 16.2856 16.6394V6.43457H20.4V16.112C20.4 17.5096 20.7429 18.5908 21.4041 19.3554C22.0652 20.1201 22.9715 20.5157 24.098 20.5157C25.298 20.5157 26.2531 20.0938 26.9388 19.2763C27.6246 18.4589 27.992 17.2723 27.992 15.7429V6.43457H32.1554Z" fill="#FF9900"/>
<path d="M42.4656 7.14657C43.4698 6.51369 44.5718 6.1709 45.8208 6.1709V10.9437H44.6207C41.584 10.9437 40.0656 12.4731 40.0656 15.5056V23.9436H35.9268V6.43458H40.0656V9.78346C40.6534 8.67596 41.4616 7.80578 42.4656 7.14657Z" fill="#FF9900"/>
<path d="M58.4825 7.83216C59.6824 8.91329 60.4173 10.3372 60.7111 12.1303H56.8415C56.6702 11.2865 56.3274 10.6272 55.7886 10.0999C55.2497 9.5989 54.515 9.33519 53.6334 9.33519C52.9232 9.33519 52.3844 9.51979 51.9927 9.86258C51.6007 10.2317 51.4049 10.7064 51.4049 11.3129C51.4049 11.7875 51.5518 12.183 51.87 12.4731C52.1885 12.7631 52.5802 13.0005 53.0456 13.1587C53.511 13.3169 54.1968 13.5279 55.0784 13.7652C56.3029 14.0552 57.3069 14.3717 58.0906 14.6881C58.8743 15.0045 59.5355 15.5319 60.0988 16.2439C60.6622 16.9558 60.9315 17.9052 60.9315 19.1181C60.9315 20.6212 60.3926 21.8341 59.2907 22.7571C58.1885 23.68 56.7436 24.1547 54.907 24.1547C52.8008 24.1547 51.0864 23.6536 49.8131 22.6252C48.5395 21.5968 47.7559 20.1465 47.4863 18.2479H51.4538C51.5518 19.1181 51.8945 19.8037 52.5068 20.2784C53.1191 20.7794 53.9028 21.0167 54.8825 21.0167C55.5927 21.0167 56.1313 20.8321 56.4988 20.463C56.8662 20.0938 57.0621 19.6191 57.0621 19.0127C57.0621 18.5116 56.8907 18.0897 56.5722 17.7733C56.254 17.4569 55.8375 17.2195 55.3721 17.0349C54.8825 16.8767 54.2212 16.6658 53.3397 16.4285C52.1151 16.1384 51.1353 15.822 50.3762 15.5319C49.6415 15.2946 48.9802 14.7936 48.4416 14.1343C47.9028 13.4487 47.6332 12.5258 47.6332 11.3392C47.6332 9.80983 48.1721 8.59687 49.2497 7.64758C50.3272 6.69827 51.8211 6.22363 53.7069 6.22363C55.6906 6.22363 57.2825 6.75102 58.4825 7.83216Z" fill="#FF9900"/>
<path d="M73.9113 7.25202C74.891 7.93763 75.5767 8.88691 75.9929 10.0735V6.43459H80.1073V23.97H75.9929V20.3048C75.5767 21.4914 74.891 22.4407 73.9113 23.1263C72.9317 23.8383 71.7561 24.1811 70.3847 24.1811C69.0132 24.1811 67.7888 23.812 66.6867 23.0999C65.5845 22.388 64.7274 21.3332 64.1151 19.9884C63.5028 18.6172 63.1846 17.035 63.1846 15.1892C63.1846 13.3433 63.5028 11.7612 64.1151 10.39C64.7274 9.01876 65.5845 7.99037 66.6867 7.27838C67.7888 6.56642 69.0132 6.19727 70.3847 6.19727C71.7561 6.22363 72.9317 6.56642 73.9113 7.25202ZM68.5725 11.4711C67.7888 12.3677 67.3969 13.6334 67.3969 15.2156C67.3969 16.7977 67.7888 18.0371 68.5725 18.9336C69.3562 19.8302 70.3847 20.2784 71.6827 20.2784C72.9317 20.2784 73.9602 19.8302 74.7929 18.9072C75.6012 17.9843 76.0174 16.7713 76.0174 15.2156C76.0174 13.6598 75.6012 12.4204 74.7929 11.4975C73.9847 10.5746 72.9562 10.1263 71.6827 10.1263C70.3847 10.0999 69.3562 10.5746 68.5725 11.4711Z" fill="#FF9900"/>
<path d="M96.4421 8.04237C97.838 9.25534 98.7196 10.9429 99.0626 13.0525H94.6787C94.5073 12.1295 94.0909 11.3912 93.4788 10.8638C92.8665 10.3101 92.0584 10.0464 91.1031 10.0464C90.0012 10.0464 89.0949 10.4947 88.3602 11.3648C87.6255 12.235 87.2582 13.5271 87.2582 15.2147C87.2582 16.9024 87.6255 18.1945 88.3602 19.0647C89.0949 19.9348 90.0012 20.3831 91.1031 20.3831C92.0584 20.3831 92.8665 20.1194 93.4788 19.5657C94.1156 19.0383 94.5073 18.2999 94.6787 17.377H99.0626C98.7196 19.4866 97.838 21.1478 96.4421 22.3872C95.0461 23.6001 93.2827 24.2331 91.201 24.2331C89.6092 24.2331 88.2133 23.8639 86.9642 23.1519C85.7154 22.4399 84.7601 21.3852 84.0744 20.0403C83.3887 18.6955 83.0459 17.087 83.0459 15.2675C83.0459 13.4216 83.3887 11.8395 84.0744 10.4683C84.7601 9.09712 85.7154 8.06873 86.9642 7.35676C88.1888 6.6448 89.6092 6.27563 91.201 6.27563C93.2827 6.22288 95.0461 6.82938 96.4421 8.04237Z" fill="#FF9900"/>
<path d="M116.205 8.17441C117.332 9.49287 117.871 11.365 117.871 13.7646V23.9431H113.756V14.292C113.756 12.8945 113.413 11.8133 112.752 11.0486C112.091 10.2839 111.185 9.8884 110.009 9.8884C108.834 9.8884 107.903 10.3103 107.193 11.1277C106.483 11.9452 106.14 13.1318 106.14 14.6612V23.9694H102.001V0.553711H106.14V9.94115C106.581 8.75452 107.291 7.83159 108.271 7.17238C109.25 6.51313 110.401 6.17034 111.699 6.17034C113.585 6.19671 115.079 6.85595 116.205 8.17441Z" fill="#FF9900"/>
<path d="M133.687 23.7423C135.231 23.7423 136.483 22.4514 136.483 20.8589C136.483 19.2665 135.231 17.9756 133.687 17.9756C132.142 17.9756 130.891 19.2665 130.891 20.8589C130.891 22.4514 132.142 23.7423 133.687 23.7423Z" fill="#FF9900"/>
<path d="M128.965 16.5895C128.965 18.1819 127.713 19.4728 126.169 19.4728C124.625 19.4728 123.373 18.1819 123.373 16.5895C123.373 14.9971 124.625 13.7061 126.169 13.7061C127.713 13.7061 128.965 14.9971 128.965 16.5895Z" fill="#FF9900"/>
<path d="M141.204 23.7423C142.748 23.7423 144 22.4514 144 20.8589C144 19.2665 142.748 17.9756 141.204 17.9756C139.66 17.9756 138.408 19.2665 138.408 20.8589C138.408 22.4514 139.66 23.7423 141.204 23.7423Z" fill="#FF9900"/>
</g>
</g>
</g>
<defs>
<clipPath id="clip0_1541_126">
<rect width="144" height="25" fill="white"/>
</clipPath>
<clipPath id="clip1_1541_126">
<rect width="144" height="25" fill="white"/>
</clipPath>
<clipPath id="clip2_1541_126">
<rect width="144" height="25" fill="white"/>
</clipPath>
</defs>
</svg>
